# xmcd CD database file
#
# Track frame offsets:
#	150
#	10758
#	21753
#	36515
#
# Disc length: 652 seconds
#
# Revision: 2
# Processed by: cddbd v1.4b41PL1 Copyright (c) Steve Scherf et al.
# Submitted via: Feurio! 1.50.2ß - http://www.feurio.com
#
DISCID=27028a04
DTITLE=Louis Armstrong - What A Wonderful World
DYEAR=1900
DGENRE=
TTITLE0=What A Wonderful World
TTITLE1=Hello Dolly
TTITLE2=Blueberry Hill
TTITLE3=When The Saints Gor Marching In
EXTD=
EXTT0=
EXTT1=
EXTT2=
EXTT3=
PLAYORDER=
